<svg width="265" height="184" xmlns="http://www.w3.org/2000/svg" xmlns:xlink="http://www.w3.org/1999/xlink" xml:space="preserve" overflow="hidden"><defs><clipPath id="clip0"><path d="M101.55 59.7195 96.4937 65.2153 92.6821 61.7207 97.7389 56.2249Z" fill-rule="evenodd" clip-rule="evenodd"/></clipPath><clipPath id="clip1"><path d="M166.92 56.2854 172.105 61.6609 168.376 65.244 163.192 59.8685Z" fill-rule="evenodd" clip-rule="evenodd"/></clipPath><clipPath id="clip2"><path d="M27.9252 63 20.8853 65.5099 19.1445 60.6449 26.1845 58.1349Z" fill-rule="evenodd" clip-rule="evenodd"/></clipPath><clipPath id="clip3"><path d="M238.604 58.1611 245.657 60.6362 243.94 65.5098 236.888 63.0346Z" fill-rule="evenodd" clip-rule="evenodd"/></clipPath><clipPath id="clip4"><path d="M128.639 153.44 134.442 158.144 131.179 162.155 125.376 157.451Z" fill-rule="evenodd" clip-rule="evenodd"/></clipPath><clipPath id="clip5"><path d="M138.746 157.513 132.899 162.163 129.674 158.123 135.521 153.473Z" fill-rule="evenodd" clip-rule="evenodd"/></clipPath></defs><g><g><g><g><path d="M0 1.53068C0 0.510226 0.510226 0 1.53068 0L35.2057 0C36.2261 0 36.7363 0.510226 36.7363 1.53068L36.7363 19.1335C36.7363 20.154 36.2261 20.6642 35.2057 20.6642L1.53068 20.6642C0.510226 20.6642 0 20.154 0 19.1335Z" stroke="#212930" stroke-width="0.574005" stroke-linecap="butt" stroke-linejoin="miter" stroke-miterlimit="4" stroke-opacity="1" fill="#5B79E8" fill-rule="nonzero" fill-opacity="1" transform="matrix(1.0018 0 0 1 76.8481 62.7495)"/><text fill="#FFFFFF" fill-opacity="1" font-family="Times New Roman,Times New Roman_MSFontService,sans-serif" font-style="normal" font-variant="normal" font-weight="400" font-stretch="normal" font-size="18" text-anchor="start" direction="ltr" writing-mode="lr-tb" unicode-bidi="normal" text-decoration="none" transform="matrix(0.383359 0 0 0.38267 81.065 71)">Conv(64)</text><text fill="#FFFFFF" fill-opacity="1" font-family="Times New Roman,Times New Roman_MSFontService,sans-serif" font-style="normal" font-variant="normal" font-weight="400" font-stretch="normal" font-size="18" text-anchor="start" direction="ltr" writing-mode="lr-tb" unicode-bidi="normal" text-decoration="none" transform="matrix(0.383359 0 0 0.38267 107.517 71)"> </text><text fill="#FFFFFF" fill-opacity="1" font-family="Times New Roman,Times New Roman_MSFontService,sans-serif" font-style="normal" font-variant="normal" font-weight="400" font-stretch="normal" font-size="18" text-anchor="start" direction="ltr" writing-mode="lr-tb" unicode-bidi="normal" text-decoration="none" transform="matrix(0.383359 0 0 0.38267 82.0234 80)">1×1+1(S)</text><path d="M138.137 31.2077 102.814 69.6655" stroke="#323232" stroke-width="0.574005" stroke-linecap="butt" stroke-linejoin="miter" stroke-miterlimit="4" stroke-opacity="1" fill="none" fill-rule="nonzero" transform="matrix(1.0018 0 0 1 -7.0497 -7.67716)"/><g clip-path="url(#clip0)"><path d="M0 0 7.46822 2.58515 0 5.17031 0 0" stroke="#323232" stroke-width="0.574478" stroke-linecap="butt" stroke-linejoin="miter" stroke-miterlimit="4" stroke-dasharray="0 0" stroke-opacity="1" fill="#323232" fill-rule="nonzero" fill-opacity="1" transform="matrix(-0.67711 0.735882 -0.737207 -0.675893 101.55 59.7195)"/></g><path d="M0 1.53068C0 0.510226 0.510226 0 1.53068 0L35.2057 0C36.2261 0 36.7363 0.510226 36.7363 1.53068L36.7363 19.1335C36.7363 20.154 36.2261 20.6642 35.2057 20.6642L1.53068 20.6642C0.510226 20.6642 0 20.154 0 19.1335Z" stroke="#212930" stroke-width="0.574005" stroke-linecap="butt" stroke-linejoin="miter" stroke-miterlimit="4" stroke-opacity="1" fill="#9E9E9E" fill-rule="nonzero" fill-opacity="1" transform="matrix(1.0018 0 0 1 151.161 62.7495)"/><text fill="#FFFFFF" fill-opacity="1" font-family="Times New Roman,Times New Roman_MSFontService,sans-serif" font-style="normal" font-variant="normal" font-weight="400" font-stretch="normal" font-size="18" text-anchor="start" direction="ltr" writing-mode="lr-tb" unicode-bidi="normal" text-decoration="none" transform="matrix(0.383359 0 0 0.38267 155.378 71)">Conv(64)</text><text fill="#FFFFFF" fill-opacity="1" font-family="Times New Roman,Times New Roman_MSFontService,sans-serif" font-style="normal" font-variant="normal" font-weight="400" font-stretch="normal" font-size="18" text-anchor="start" direction="ltr" writing-mode="lr-tb" unicode-bidi="normal" text-decoration="none" transform="matrix(0.383359 0 0 0.38267 181.83 71)"> </text><text fill="#FFFFFF" fill-opacity="1" font-family="Times New Roman,Times New Roman_MSFontService,sans-serif" font-style="normal" font-variant="normal" font-weight="400" font-stretch="normal" font-size="18" text-anchor="start" direction="ltr" writing-mode="lr-tb" unicode-bidi="normal" text-decoration="none" transform="matrix(0.383359 0 0 0.38267 156.337 80)">1×1+1(S)</text><path d="M138.53 31.203 175.578 69.6823" stroke="#323232" stroke-width="0.574005" stroke-linecap="butt" stroke-linejoin="miter" stroke-miterlimit="4" stroke-dasharray="3.06136 1.91335" stroke-opacity="1" fill="none" fill-rule="nonzero" transform="matrix(1.0018 0 0 1 -7.0497 -7.67716)"/><g clip-path="url(#clip1)"><path d="M0 0 7.46854 2.58526 0 5.17052 0 0" stroke="#323232" stroke-width="0.574503" stroke-linecap="butt" stroke-linejoin="miter" stroke-miterlimit="4" stroke-dasharray="0 0" stroke-opacity="1" fill="#323232" fill-rule="nonzero" fill-opacity="1" transform="matrix(0.694231 0.719752 -0.721048 0.692984 166.92 56.2854)"/></g><path d="M0 1.53068C0 0.510226 0.510226 0 1.53068 0L35.2057 0C36.2261 0 36.7363 0.510226 36.7363 1.53068L36.7363 19.1335C36.7363 20.154 36.2261 20.6642 35.2057 20.6642L1.53068 20.6642C0.510226 20.6642 0 20.154 0 19.1335Z" stroke="#212930" stroke-width="0.574005" stroke-linecap="butt" stroke-linejoin="miter" stroke-miterlimit="4" stroke-opacity="1" fill="#5B79E8" fill-rule="nonzero" fill-opacity="1" transform="matrix(1.0018 0 0 1 2.53428 62.7495)"/><text fill="#FFFFFF" fill-opacity="1" font-family="Times New Roman,Times New Roman_MSFontService,sans-serif" font-style="normal" font-variant="normal" font-weight="400" font-stretch="normal" font-size="18" text-anchor="start" direction="ltr" writing-mode="lr-tb" unicode-bidi="normal" text-decoration="none" transform="matrix(0.383359 0 0 0.38267 6.75123 71)">Conv(64)</text><text fill="#FFFFFF" fill-opacity="1" font-family="Times New Roman,Times New Roman_MSFontService,sans-serif" font-style="normal" font-variant="normal" font-weight="400" font-stretch="normal" font-size="18" text-anchor="start" direction="ltr" writing-mode="lr-tb" unicode-bidi="normal" text-decoration="none" transform="matrix(0.383359 0 0 0.38267 33.203 71)"> </text><text fill="#FFFFFF" fill-opacity="1" font-family="Times New Roman,Times New Roman_MSFontService,sans-serif" font-style="normal" font-variant="normal" font-weight="400" font-stretch="normal" font-size="18" text-anchor="start" direction="ltr" writing-mode="lr-tb" unicode-bidi="normal" text-decoration="none" transform="matrix(0.383359 0 0 0.38267 7.70963 80)">1×1+1(S)</text><path d="M0 1.53068C0 0.510226 0.510226 0 1.53068 0L35.2057 0C36.2261 0 36.7363 0.510226 36.7363 1.53068L36.7363 19.1335C36.7363 20.154 36.2261 20.6642 35.2057 20.6642L1.53068 20.6642C0.510226 20.6642 0 20.154 0 19.1335Z" stroke="#212930" stroke-width="0.574005" stroke-linecap="butt" stroke-linejoin="miter" stroke-miterlimit="4" stroke-opacity="1" fill="#A23735" fill-rule="nonzero" fill-opacity="1" transform="matrix(1.0018 0 0 1 225.475 62.7495)"/><text fill="#FFFFFF" fill-opacity="1" font-family="Times New Roman,Times New Roman_MSFontService,sans-serif" font-style="normal" font-variant="normal" font-weight="400" font-stretch="normal" font-size="18" text-anchor="start" direction="ltr" writing-mode="lr-tb" unicode-bidi="normal" text-decoration="none" transform="matrix(0.383359 0 0 0.38267 230.267 71)">MaxPool</text><text fill="#FFFFFF" fill-opacity="1" font-family="Times New Roman,Times New Roman_MSFontService,sans-serif" font-style="normal" font-variant="normal" font-weight="400" font-stretch="normal" font-size="18" text-anchor="start" direction="ltr" writing-mode="lr-tb" unicode-bidi="normal" text-decoration="none" transform="matrix(0.383359 0 0 0.38267 255.569 71)"> </text><text fill="#FFFFFF" fill-opacity="1" font-family="Times New Roman,Times New Roman_MSFontService,sans-serif" font-style="normal" font-variant="normal" font-weight="400" font-stretch="normal" font-size="18" text-anchor="start" direction="ltr" writing-mode="lr-tb" unicode-bidi="normal" text-decoration="none" transform="matrix(0.383359 0 0 0.38267 230.651 80)">3×3+1(S)</text><path d="M138.061 31.0928 28.9079 70.0788" stroke="#323232" stroke-width="0.574005" stroke-linecap="butt" stroke-linejoin="miter" stroke-miterlimit="4" stroke-opacity="1" fill="none" fill-rule="nonzero" transform="matrix(1.0018 0 0 1 -7.0497 -7.67716)"/><g clip-path="url(#clip2)"><path d="M0 0 7.46359 2.58355 0 5.1671 0 0" stroke="#323232" stroke-width="0.574122" stroke-linecap="butt" stroke-linejoin="miter" stroke-miterlimit="4" stroke-dasharray="0 0" stroke-opacity="1" fill="#323232" fill-rule="nonzero" fill-opacity="1" transform="matrix(-0.943238 0.33629 -0.336895 -0.941543 27.9252 63)"/></g><path d="M138.602 31.0915 249.5 70.0838" stroke="#323232" stroke-width="0.574005" stroke-linecap="butt" stroke-linejoin="miter" stroke-miterlimit="4" stroke-opacity="1" fill="none" fill-rule="nonzero" transform="matrix(1.0018 0 0 1 -7.0497 -7.67716)"/><g clip-path="url(#clip3)"><path d="M0 0 7.46354 2.58353 0 5.16707 0 0" stroke="#323232" stroke-width="0.574119" stroke-linecap="butt" stroke-linejoin="miter" stroke-miterlimit="4" stroke-dasharray="0 0" stroke-opacity="1" fill="#323232" fill-rule="nonzero" fill-opacity="1" transform="matrix(0.944897 0.331632 -0.332229 0.9432 238.604 58.1611)"/></g><path d="M0 1.53068C0 0.510226 0.510226 0 1.53068 0L35.2057 0C36.2261 0 36.7363 0.510226 36.7363 1.53068L36.7363 19.1335C36.7363 20.154 36.2261 20.6642 35.2057 20.6642L1.53068 20.6642C0.510226 20.6642 0 20.154 0 19.1335Z" stroke="#212930" stroke-width="0.574005" stroke-linecap="butt" stroke-linejoin="miter" stroke-miterlimit="4" stroke-opacity="1" fill="#5B79E8" fill-rule="nonzero" fill-opacity="1" transform="matrix(1.0018 0 0 1 76.8481 109.037)"/><text fill="#FFFFFF" fill-opacity="1" font-family="Times New Roman,Times New Roman_MSFontService,sans-serif" font-style="normal" font-variant="normal" font-weight="400" font-stretch="normal" font-size="18" text-anchor="start" direction="ltr" writing-mode="lr-tb" unicode-bidi="normal" text-decoration="none" transform="matrix(0.383359 0 0 0.38267 81.065 118)">Conv(96)</text><text fill="#FFFFFF" fill-opacity="1" font-family="Times New Roman,Times New Roman_MSFontService,sans-serif" font-style="normal" font-variant="normal" font-weight="400" font-stretch="normal" font-size="18" text-anchor="start" direction="ltr" writing-mode="lr-tb" unicode-bidi="normal" text-decoration="none" transform="matrix(0.383359 0 0 0.38267 107.517 118)"> </text><text fill="#FFFFFF" fill-opacity="1" font-family="Times New Roman,Times New Roman_MSFontService,sans-serif" font-style="normal" font-variant="normal" font-weight="400" font-stretch="normal" font-size="18" text-anchor="start" direction="ltr" writing-mode="lr-tb" unicode-bidi="normal" text-decoration="none" transform="matrix(0.383359 0 0 0.38267 82.0234 126)">3×3+1(S)</text><path d="M0 1.53068C0 0.510226 0.510226 0 1.53068 0L35.2057 0C36.2261 0 36.7363 0.510226 36.7363 1.53068L36.7363 19.1335C36.7363 20.154 36.2261 20.6642 35.2057 20.6642L1.53068 20.6642C0.510226 20.6642 0 20.154 0 19.1335Z" stroke="#212930" stroke-width="0.574005" stroke-linecap="butt" stroke-linejoin="miter" stroke-miterlimit="4" stroke-opacity="1" fill="#9E9E9E" fill-rule="nonzero" fill-opacity="1" transform="matrix(1.0018 0 0 1 151.161 109.037)"/><text fill="#FFFFFF" fill-opacity="1" font-family="Times New Roman,Times New Roman_MSFontService,sans-serif" font-style="normal" font-variant="normal" font-weight="400" font-stretch="normal" font-size="18" text-anchor="start" direction="ltr" writing-mode="lr-tb" unicode-bidi="normal" text-decoration="none" transform="matrix(0.383359 0 0 0.38267 155.378 118)">Conv(32)</text><text fill="#FFFFFF" fill-opacity="1" font-family="Times New Roman,Times New Roman_MSFontService,sans-serif" font-style="normal" font-variant="normal" font-weight="400" font-stretch="normal" font-size="18" text-anchor="start" direction="ltr" writing-mode="lr-tb" unicode-bidi="normal" text-decoration="none" transform="matrix(0.383359 0 0 0.38267 181.83 118)"> </text><text fill="#FFFFFF" fill-opacity="1" font-family="Times New Roman,Times New Roman_MSFontService,sans-serif" font-style="normal" font-variant="normal" font-weight="400" font-stretch="normal" font-size="18" text-anchor="start" direction="ltr" writing-mode="lr-tb" unicode-bidi="normal" text-decoration="none" transform="matrix(0.383359 0 0 0.38267 156.337 126)">3×3+1(S)</text><path d="M102.115 91.3778 102.115 115.681" stroke="#323232" stroke-width="0.574005" stroke-linecap="butt" stroke-linejoin="miter" stroke-miterlimit="4" stroke-opacity="1" fill="none" fill-rule="nonzero" transform="matrix(1.0018 0 0 1 -7.0497 -7.67716)"/><g><path d="M0 0 7.46207 2.58302 0 5.16605 0 0" stroke="#323232" stroke-width="0.574005" stroke-linecap="butt" stroke-linejoin="miter" stroke-miterlimit="4" stroke-dasharray="0 0" stroke-opacity="1" fill="#323232" fill-rule="nonzero" fill-opacity="1" transform="matrix(6.13426e-17 1 -1.0018 6.12323e-17 97.837 102.551)"/></g><path d="M176.295 91.3778 176.295 115.681" stroke="#323232" stroke-width="0.574005" stroke-linecap="butt" stroke-linejoin="miter" stroke-miterlimit="4" stroke-dasharray="3.06136 1.91335" stroke-opacity="1" fill="none" fill-rule="nonzero" transform="matrix(1.0018 0 0 1 -7.0497 -7.67716)"/><g><path d="M0 0 7.46207 2.58302 0 5.16605 0 0" stroke="#323232" stroke-width="0.574005" stroke-linecap="butt" stroke-linejoin="miter" stroke-miterlimit="4" stroke-dasharray="0 0" stroke-opacity="1" fill="#323232" fill-rule="nonzero" fill-opacity="1" transform="matrix(6.13426e-17 1 -1.0018 6.12323e-17 172.15 102.551)"/></g><path d="M0 1.53068C0 0.510226 0.510226 0 1.53068 0L35.2057 0C36.2261 0 36.7363 0.510226 36.7363 1.53068L36.7363 19.1335C36.7363 20.154 36.2261 20.6642 35.2057 20.6642L1.53068 20.6642C0.510226 20.6642 0 20.154 0 19.1335Z" stroke="#212930" stroke-width="0.574005" stroke-linecap="butt" stroke-linejoin="miter" stroke-miterlimit="4" stroke-opacity="1" fill="#5B79E8" fill-rule="nonzero" fill-opacity="1" transform="matrix(1.0018 0 0 1 225.475 109.037)"/><text fill="#FFFFFF" fill-opacity="1" font-family="Times New Roman,Times New Roman_MSFontService,sans-serif" font-style="normal" font-variant="normal" font-weight="400" font-stretch="normal" font-size="18" text-anchor="start" direction="ltr" writing-mode="lr-tb" unicode-bidi="normal" text-decoration="none" transform="matrix(0.383359 0 0 0.38267 229.692 118)">Conv(32)</text><text fill="#FFFFFF" fill-opacity="1" font-family="Times New Roman,Times New Roman_MSFontService,sans-serif" font-style="normal" font-variant="normal" font-weight="400" font-stretch="normal" font-size="18" text-anchor="start" direction="ltr" writing-mode="lr-tb" unicode-bidi="normal" text-decoration="none" transform="matrix(0.383359 0 0 0.38267 256.144 118)"> </text><text fill="#FFFFFF" fill-opacity="1" font-family="Times New Roman,Times New Roman_MSFontService,sans-serif" font-style="normal" font-variant="normal" font-weight="400" font-stretch="normal" font-size="18" text-anchor="start" direction="ltr" writing-mode="lr-tb" unicode-bidi="normal" text-decoration="none" transform="matrix(0.383359 0 0 0.38267 230.651 126)">1×1+1(S)</text><path d="M250.475 91.3778 250.475 115.681" stroke="#323232" stroke-width="0.574005" stroke-linecap="butt" stroke-linejoin="miter" stroke-miterlimit="4" stroke-opacity="1" fill="none" fill-rule="nonzero" transform="matrix(1.0018 0 0 1 -7.0497 -7.67716)"/><g><path d="M0 0 7.46207 2.58302 0 5.16605 0 0" stroke="#323232" stroke-width="0.574005" stroke-linecap="butt" stroke-linejoin="miter" stroke-miterlimit="4" stroke-dasharray="0 0" stroke-opacity="1" fill="#323232" fill-rule="nonzero" fill-opacity="1" transform="matrix(6.13426e-17 1 -1.0018 6.12323e-17 246.464 102.551)"/></g><path d="M0 1.53068C0 0.510226 0.510226 0 1.53068 0L41.1313 0C42.1515 0 42.662 0.510226 42.662 1.53068L42.662 19.1335C42.662 20.154 42.1515 20.6642 41.1313 20.6642L1.53068 20.6642C0.510226 20.6642 0 20.154 0 19.1335Z" stroke="#212930" stroke-width="0.574005" stroke-linecap="butt" stroke-linejoin="miter" stroke-miterlimit="4" stroke-opacity="1" fill="#569230" fill-rule="nonzero" fill-opacity="1" transform="matrix(1.0018 0 0 1 110.682 159.534)"/><text fill="#FFFFFF" fill-opacity="1" font-family="Times New Roman,Times New Roman_MSFontService,sans-serif" font-style="normal" font-variant="normal" font-weight="400" font-stretch="normal" font-size="17" text-anchor="start" direction="ltr" writing-mode="lr-tb" unicode-bidi="normal" text-decoration="none" transform="matrix(0.383359 0 0 0.38267 114.899 172)">DepthConcat</text><path d="M102.338 137.56 138.049 166.56" stroke="#323232" stroke-width="0.574005" stroke-linecap="butt" stroke-linejoin="miter" stroke-miterlimit="4" stroke-opacity="1" fill="none" fill-rule="nonzero" transform="matrix(1.0018 0 0 1 -7.0497 -7.67716)"/><g clip-path="url(#clip4)"><path d="M0 0 7.4674 2.58487 0 5.16974 0 0" stroke="#323232" stroke-width="0.574415" stroke-linecap="butt" stroke-linejoin="miter" stroke-miterlimit="4" stroke-dasharray="0 0" stroke-opacity="1" fill="#323232" fill-rule="nonzero" fill-opacity="1" transform="matrix(0.777116 0.629947 -0.631081 0.775719 128.639 153.44)"/></g><path d="M176.07 137.557 139.659 166.568" stroke="#323232" stroke-width="0.574005" stroke-linecap="butt" stroke-linejoin="miter" stroke-miterlimit="4" stroke-dasharray="3.06136 1.91335" stroke-opacity="1" fill="none" fill-rule="nonzero" transform="matrix(1.0018 0 0 1 -7.0497 -7.67716)"/><g clip-path="url(#clip5)"><path d="M0 0 7.46728 2.58483 0 5.16965 0 0" stroke="#323232" stroke-width="0.574406" stroke-linecap="butt" stroke-linejoin="miter" stroke-miterlimit="4" stroke-dasharray="0 0" stroke-opacity="1" fill="#323232" fill-rule="nonzero" fill-opacity="1" transform="matrix(-0.782968 0.622711 -0.623832 -0.781561 138.746 157.513)"/></g><path d="M27.9349 91.3778 27.9349 177.544 116.487 177.544" stroke="#323232" stroke-width="0.574005" stroke-linecap="butt" stroke-linejoin="miter" stroke-miterlimit="4" stroke-opacity="1" fill="none" fill-rule="nonzero" transform="matrix(1.0018 0 0 1 -7.0497 -7.67716)"/><g><path d="M0 0 7.46207 2.58302 0 5.16605 0 0" stroke="#323232" stroke-width="0.574005" stroke-linecap="butt" stroke-linejoin="miter" stroke-miterlimit="4" stroke-dasharray="0 0" stroke-opacity="1" fill="#323232" fill-rule="nonzero" fill-opacity="1" transform="matrix(1.0018 0 0 1 104.184 167.284)"/></g><path d="M250.475 137.666 250.475 177.544 161.216 177.544" stroke="#323232" stroke-width="0.574005" stroke-linecap="butt" stroke-linejoin="miter" stroke-miterlimit="4" stroke-opacity="1" fill="none" fill-rule="nonzero" transform="matrix(1.0018 0 0 1 -7.0497 -7.67716)"/><g><path d="M0 0 7.46207 2.58302 0 5.16605 0 0" stroke="#323232" stroke-width="0.574005" stroke-linecap="butt" stroke-linejoin="miter" stroke-miterlimit="4" stroke-dasharray="0 0" stroke-opacity="1" fill="#323232" fill-rule="nonzero" fill-opacity="1" transform="matrix(-1.0018 1.22465e-16 -1.22685e-16 -1 159.919 172.45)"/></g><path d="M7.14319 0 32.0487 0C41.5729 0 41.5729 21.4295 32.0487 21.4295L7.14319 21.4295C-2.38106 21.4295-2.38106 0 7.14319 0Z" stroke="#212930" stroke-width="0.574005" stroke-linecap="butt" stroke-linejoin="miter" stroke-miterlimit="4" stroke-opacity="1" fill="#ED9745" fill-rule="nonzero" fill-opacity="1" transform="matrix(1.0018 0 0 1 111.899 1.8896)"/><text fill="#FFFFFF" fill-opacity="1" font-family="Times New Roman,Times New Roman_MSFontService,sans-serif" font-style="normal" font-variant="normal" font-weight="400" font-stretch="normal" font-size="18" text-anchor="start" direction="ltr" writing-mode="lr-tb" unicode-bidi="normal" text-decoration="none" transform="matrix(0.383359 0 0 0.38267 124.358 15)">Input</text></g></g></g></g></svg>
